PathFileType	4	(X/Y/Z)	C:/Users/beibeiliu/ov580/test_trc/User3\sequence.35_training_dense_right.trc
DataRate	CameraRate	NumFrames	NumMarkers	Units	OrigDataRate	OrigDataStartFrame	OrigNumFrames
120	120	22	19	mm	120	1	74
Frame#	Time	ThumbCMC			ThumbMCP			ThumbIP			ThumbTip			IndexMCP			IndexPIP			IndexTip			MiddleMCP			MiddlePIP			MiddleTip			RingMCP			RingPIP			RingTip			PinkyMCP			PinkyPIP			PinkyTip			BackHand1			BackHand2			BackHand3	
		X0	Y0	Z0	X1	Y1	Z1	X2	Y2	Z2	X3	Y3	Z3	X4	Y4	Z4	X5	Y5	Z5	X6	Y6	Z6	X7	Y7	Z7	X8	Y8	Z8	X9	Y9	Z9	X10	Y10	Z10	X11	Y11	Z11	X12	Y12	Z12	X13	Y13	Z13	X14	Y14	Z14	X15	Y15	Z15	X16	Y16	Z16	X17	Y17	Z17	X18	Y18	Z18	
0	0	164.362	1.83107	4.60933	170.754	16.3963	-21.602	176.062	27.0432	-48.2514	182.703	36.3019	-64.495	130.04	-14.0266	-66.2923	118.129	-9.3104	-92.8178	111.851	-5.28522	-113.615	99.0813	-10.2398	-56.812	85.5717	20.1761	-49.5626	103.043	15.7195	-13.2646	87.7723	-12.7062	-39.3183	79.4565	12.3675	-23.5103	103.193	4.84461	0.913186	79.8056	-20.9281	-25.2229	75.1174	3.54832	-12.0428	95.2202	-2.39121	9.38362	124.452	-47.0363	-9.95029	140.177	-50.2938	19.3024	156.723	-29.1276	-4.577	
1	0.00833333	168.445	-4.23841	4.7553	173.287	6.98792	-14.5891	182.897	16.3647	-44.205	194.322	26.8644	-56.4819	134.291	-18.2644	-61.4279	126.871	-13.7421	-89.2529	114.292	-10.8897	-111.384	107.685	-10.7035	-53.5193	94.3543	21.701	-44.3096	110.472	14.4424	-9.26515	93.025	-10.5998	-38.2982	81.1363	9.94417	-22.4678	107.24	5.98183	2.48452	83.8386	-20.7577	-21.8727	79.4309	5.52739	-10.6902	101.567	-1.20962	8.8819	124.034	-48.9121	-4.38376	137.431	-52.6928	25.1358	157.409	-35.2516	-1.98316	
2	0.0166667	172.163	-7.37327	14.3658	175.232	2.14666	-12.1563	188.167	10.9194	-38.4859	196.813	18.2177	-53.6586	135.567	-21.1494	-57.4149	131.76	-15.8981	-81.9878	119.114	-13.7969	-104.72	106.897	-7.98501	-52.1497	98.3101	21.617	-42.0805	113.525	12.9856	-5.48143	92.6171	-12.7169	-33.7272	86.6765	12.571	-22.5833	107.146	6.40158	4.88961	83.8477	-19.4888	-20.6984	79.7315	5.13874	-10.0431	98.966	3.18346	10.9731	121.389	-50.5027	-0.566968	131.708	-56.1219	28.284	155.556	-39.7458	5.08812	
3	0.025	171.309	-8.61828	16.3269	178.04	1.22831	-4.77319	188.086	8.19531	-34.6335	200.236	16.64	-48.6009	137.986	-20.6583	-51.9056	130.259	-15.6428	-81.3668	118.402	-13.6489	-101.735	104.642	-10.0772	-46.2789	96.3667	21.9328	-36.3015	110.895	13.8029	-2.60388	93.0216	-9.46671	-32.0295	87.3063	16.666	-15.4048	108.278	8.56702	8.13495	83.3919	-18.0194	-16.2362	79.6843	7.20471	-8.42859	100.8	3.12499	17.3144	121.945	-50.043	2.56961	129.955	-53.1691	35.5048	154.964	-37.645	5.89171	
4	0.0333333	169.827	-6.90411	20.3072	174.355	2.82893	-0.240727	185.986	10.1779	-27.8281	196.909	18.2354	-44.2537	133.642	-18.8263	-49.6058	130.572	-13.4328	-73.457	117.155	-9.7965	-95.5358	108.799	-7.91103	-41.1898	97.4071	25.5648	-32.1876	111.466	19.7054	1.09444	93.7765	-9.55109	-24.222	88.6977	21.0064	-11.4644	107.939	11.2293	14.3377	80.4759	-16.0043	-8.82296	80.9174	13.6156	-0.536843	99.3277	4.56697	22.1623	119.448	-46.8421	11.0456	125.242	-53.3143	41.0146	149.153	-37.6456	16.4634	
5	0.0416667	167.007	-3.06293	25.7248	170.639	6.38861	5.42866	181.812	15.0918	-17.816	192.732	22.5413	-35.3903	135.341	-12.3745	-43.0914	124.889	-9.36083	-68.414	120.655	-1.91098	-94.4664	105.165	-4.1307	-34.6222	93.4725	27.9075	-28.5404	110.027	24.6401	6.00314	92.0433	-2.21656	-20.4557	83.4954	23.1989	-6.36636	105.071	17.574	17.5395	77.0781	-9.09419	-4.75141	78.5455	15.9843	2.42274	98.3633	8.26832	30.4252	112.917	-43.6041	15.3239	124.46	-47.5494	43.1027	146.507	-33.539	18.2961	
6	0.05	164.736	0.240415	33.7378	174.507	10.5142	13.064	186.687	19.5191	-13.6764	196.078	28.5526	-27.065	134.902	-8.41166	-37.0561	130.524	-2.32676	-64.3055	118.05	1.04727	-85.6199	107.796	1.66677	-30.5505	96.2193	32.6668	-22.8219	110.498	26.3643	13.3701	88.6828	0.05013	-14.0892	83.0773	26.0752	0.236152	102.86	19.1895	25.8668	80.4527	-8.26976	0.950714	76.8879	19.194	11.5082	97.7118	10.7852	35.0713	117.806	-40.549	21.6254	127.217	-43.8559	49.8054	148.74	-28.7343	24.1954	
7	0.0583333	167.509	2.1531	43.4957	175.42	12.0255	18.9599	186.985	21.2881	-6.24058	197.648	29.7055	-23.1862	138.448	-5.60518	-32.8008	129.011	0.168899	-59.5567	121.939	5.27719	-83.669	106.832	6.01631	-25.2031	98.2026	36.1524	-15.8414	110.644	24.4868	21.7237	89.4363	3.9668	-8.96678	83.9744	28.8085	6.3763	105.14	23.3779	29.9893	81.2689	-6.63742	5.3151	77.905	21.0663	11.7285	95.6102	16.184	40.4346	117.513	-38.3118	21.6035	127.003	-43.4596	56.0067	152.238	-27.0992	31.4475	
8	0.0666667	162.122	-0.0979611	41.4112	174.104	10.8732	21.5079	183.781	19.3833	-2.35177	195.213	28.8002	-19.2687	134.5	-6.84482	-31.1931	129.898	-1.64161	-56.6681	121.221	2.76519	-77.1306	105.441	4.09065	-22.8185	96.7153	36.0469	-11.3543	109.572	29.1662	20.0624	92.395	0.618123	-7.40395	84.7712	28.687	4.30403	104.46	20.7978	33.9084	78.1845	-5.20224	6.26666	79.301	21.8241	14.9597	91.1316	16.151	41.6804	112.027	-40.9007	25.88	120.591	-44.8564	55.7965	146.886	-28.9384	35.2571	
9	0.075	163.369	-0.476574	44.9139	171.308	11.1135	20.1108	182.171	19.0074	-3.32058	193.121	27.2132	-21.631	130.423	-9.30408	-30.9488	129.447	-1.87859	-54.136	117.763	3.63518	-80.139	104.935	6.00833	-25.6633	94.8217	35.548	-12.582	108.643	29.38	20.3445	88.9663	-0.303096	-7.54327	83.2894	28.3902	3.18389	102.005	22.3369	31.7513	73.6001	-5.75414	6.42398	75.3824	21.3802	14.6786	93.2868	18.2459	39.0929	113.959	-37.6619	27.4424	117.664	-44.2244	54.739	143.668	-31.8748	35.6772	
10	0.0833333	158.142	-1.05151	41.6676	170.743	10.6342	17.0387	181.888	20.5982	-6.29215	189.758	27.9989	-24.1436	131.9	-8.61194	-28.7623	126.314	-1.37562	-58.6777	114.759	1.27008	-77.9952	100.968	4.87168	-24.4236	90.0033	33.4978	-16.0572	104.958	27.7947	19.7832	84.4463	2.5834	-8.96616	80.225	28.4687	4.03445	99.6176	21.6285	31.4357	71.3633	-5.27324	6.58192	73.7629	21.1053	13.8088	93.2738	15.976	40.1933	112.536	-38.27	28.3205	118.954	-45.3361	57.224	142.031	-28.9373	35.5992	
11	0.0916667	159.24	-0.0424691	45.3732	164.346	9.21488	19.2737	178.781	18.9932	-9.81454	190.294	27.451	-25.9854	131.419	-8.17068	-31.534	123.743	-3.66048	-57.5768	114.697	2.57669	-81.1582	103.433	2.19808	-23.6419	90.1515	33.85	-15.29	106.893	28.7639	19.9939	84.2438	1.12383	-8.9157	78.6472	26.6631	5.25571	101.157	18.748	31.0915	74.4156	-3.5359	3.4615	73.5067	21.5947	16.1691	90.28	13.6823	40.256	108.345	-39.5245	24.0463	117.928	-44.8063	55.7067	143.575	-27.721	30.6297	
12	0.1	160.695	-1.96616	43.7195	164.895	7.19929	18.6229	176.749	16.6443	-4.98189	187.113	24.0114	-22.8425	131.249	-11.7673	-33.8015	123.02	-6.79683	-57.0864	118.567	-0.332198	-78.1604	101.067	2.79956	-26.8688	88.6613	30.577	-13.3783	103.481	24.765	19.1859	84.4751	0.294066	-9.30244	78.462	24.9158	8.62326	101.836	17.6449	30.7598	71.1156	-6.9098	3.95816	73.6106	18.5895	13.9616	91.9143	11.9755	37.5113	110.366	-43.0343	24.7801	116.912	-45.8632	55.5202	144.438	-32.5594	34.0648	
13	0.108333	155.367	-5.43857	41.3823	165.105	5.67064	17.2795	174.89	12.7833	-7.45175	185.821	21.943	-22.5765	127.466	-15.0948	-30.1484	121.285	-10.519	-56.8699	114.406	-3.59106	-83.2944	97.9388	-4.96427	-24.198	87.9979	26.971	-18.6382	102.712	21.1061	19.8762	80.8828	-1.75104	-9.20511	81.7532	23.8239	3.03144	97.1144	16.4646	30.1123	69.649	-11.7194	5.78496	72.312	16.7613	15.5381	89.6872	12.0518	35.1464	109.999	-44.2553	27.7702	115.366	-48.1784	54.378	143.981	-34.6115	33.812	
14	0.116667	156.584	-5.30784	40.2171	167.791	5.63912	18.1708	175.226	12.171	-8.34853	187.45	19.6113	-28.4606	128.494	-15.7488	-35.0903	119.789	-10.4893	-59.5185	115.909	-4.75424	-81.6348	101.052	-1.96128	-26.3552	87.79	26.1116	-19.8183	103.338	21.725	18.0882	80.6058	-3.69227	-9.23921	79.7218	23.9577	6.17145	100.676	12.9517	29.5623	71.0465	-11.0628	5.10847	67.8317	16.0354	14.263	90.2965	9.08848	38.2889	105.473	-45.0673	26.7883	116.961	-48.4689	55.161	140.431	-33.4515	30.3028	
15	0.125	159.006	-6.91173	38.8251	166.411	3.69066	16.8347	177.789	11.323	-8.18377	186.416	18.6758	-25.481	130.152	-16.0963	-35.0597	123.636	-9.7824	-61.0005	118.572	-5.68878	-83.0598	100.075	-1.28359	-28.1923	93.2067	29.2869	-19.0711	105.136	24.6399	15.9221	85.6329	-2.55748	-12.8639	76.0775	21.622	1.57829	97.9012	13.7277	29.5948	71.0256	-10.7929	3.22999	69.9343	15.6106	12.82	89.8287	10.1074	36.6314	105.201	-47.3724	26.8115	112.917	-51.1548	53.1073	141.218	-34.9223	33.0754	
16	0.133333	157.33	-8.62971	40.5362	170.073	2.23263	15.9154	177.643	9.13379	-11.7178	189.397	17.9243	-28.0224	132.029	-18.0139	-36.0194	128.094	-11.6707	-60.4754	116.973	-7.81015	-84.6663	104.767	-6.96036	-28.9787	94.9013	25.389	-25.4805	100.871	25.1724	12.2818	88.7088	-8.87984	-12.4878	81.3271	21.7077	-1.48729	100.526	16.2086	26.1711	72.632	-14.5407	3.07625	74.8244	15.2636	10.2521	92.6359	10.6172	34.1201	108.666	-48.1757	26.5624	115.181	-52.5116	56.2815	141.752	-36.7198	34.2928	
17	0.141667	162.481	-9.55756	38.5123	169.066	2.1268	13.4914	182.248	12.047	-8.22821	189.452	20.0064	-25.5936	132.487	-20.7519	-35.834	127.412	-13.8529	-60.7039	119.345	-5.11753	-82.3142	104.412	-9.12355	-31.255	95.2007	22.9921	-28.6636	105.118	30.8225	7.05756	91.3517	-10.197	-17.5779	81.1802	19.3331	-6.63628	99.1744	21.5325	17.973	76.556	-13.8095	-1.63127	75.3354	13.9911	5.52483	88.8031	16.2943	31.7162	109.67	-49.7826	26.508	117.673	-53.1023	57.9365	146.681	-37.1738	33.5395	
18	0.15	167.278	-9.1811	41.1079	171.698	3.56338	12.7665	181.396	16.226	-9.27469	185.265	25.8898	-30.8782	138.878	-22.6114	-34.8376	130.084	-15.0229	-60.3573	115.291	2.20114	-82.2075	110.396	-15.4819	-35.7761	96.865	11.661	-39.3861	99.297	31.5703	-3.45293	91.0518	-20.8876	-17.4797	81.7643	9.68167	-21.7399	95.6632	23.6084	7.77776	79.3674	-22.2342	-1.46581	75.6954	8.89941	-3.24904	85.5476	18.2757	19.8238	116.078	-50.2682	23.8553	121.694	-51.0774	54.9665	146.952	-40.9559	32.9312	
19	0.158333	167.778	-7.97012	36.5693	169.094	6.57995	10.4705	172.154	20.7936	-11.39	168.743	32.99	-34.8712	141.707	-23.7874	-33.8512	131.389	-11.2323	-62.7254	120.155	14.417	-71.9867	110.713	-23.3758	-36.9118	99.7446	5.70591	-46.1553	99.9325	32.6729	-17.0665	95.6282	-25.0534	-25.2587	86.3917	3.18751	-32.0313	93.4109	24.0355	-4.52835	85.0576	-27.5986	-4.39699	74.4218	-1.42679	-13.2679	86.7132	21.7175	4.87332	120.09	-52.0565	20.6238	123.023	-54.6041	51.108	150.239	-42.0042	33.9842	
20	0.166667	165.746	-7.27736	34.3177	169.815	11.2915	12.3528	167.338	28.4431	-15.7753	148.148	31.9727	-33.7293	141.3	-25.5906	-36.0578	134.483	-5.45336	-61.8059	124.912	23.8799	-54.2487	122.702	-27.9461	-37.733	107.423	-1.69902	-53.9195	106.804	31.7062	-25.7027	103.866	-29.2194	-28.9682	92.1605	-1.24518	-39.2244	90.4141	20.7484	-17.3422	86.1946	-31.235	-10.0862	77.2367	-8.29499	-20.871	81.0724	18.8059	-6.12005	119.713	-55.0171	25.0657	124.479	-56.4197	53.0403	156.108	-40.174	27.5757	
21	0.175	169.45	-6.65073	33.1322	165.387	12.9703	7.54823	158.237	29.3507	-18.4885	135.731	31.5021	-30.4896	146.404	-23.628	-40.4604	139.538	-0.837877	-58.8479	134.936	26.6162	-32.9415	127.006	-29.3539	-41.2972	117.809	1.25925	-55.3999	114.018	25.7741	-25.0508	107.619	-31.8199	-31.8249	98.2589	-7.90366	-43.0551	96.7385	18.8344	-21.7767	93.4548	-32.2476	-15.6432	87.6525	-9.41182	-27.322	88.6413	16.7097	-14.2459	127.553	-53.6584	23.6897	127.251	-54.5454	51.9418	155.693	-43.8976	31.7411	
